Coordinates
version=1
nRows=26
nColumns=22
inDegrees=yes

Units are S.I. units (second, meters, Newtons, ...)
If the header above contains a line with 'inDegrees', this indicates whether rotational values are in degrees (yes) or radians (no).

endheader
time	pelvis_tilt	pelvis_list	pelvis_rotation	pelvis_tx	pelvis_ty	pelvis_tz	hip_flexion_r	hip_adduction_r	hip_rotation_r	knee_angle_r	ankle_angle_r	subtalar_angle_r	hip_flexion_l	hip_adduction_l	hip_rotation_l	knee_angle_l	ankle_angle_l	subtalar_angle_l	lumbar_extension	lumbar_bending	lumbar_rotation
      0.01000000	     -2.51628722	     -5.15858018	     -1.59560359	      1.08899461	      0.94246493	     -0.27874717	      6.84737928	      6.73683765	     -2.24968451	    -15.82017628	     11.19497864	     -3.18396099	      8.92851800	     -8.51831664	     -6.88562215	    -24.10739311	     14.61304316	     -2.93691979	     -4.35042951	      2.33490341	      1.20462464
      0.02000000	     -2.51563882	     -5.15603895	     -1.62526748	      1.08902400	      0.94246266	     -0.27885158	      6.87294159	      6.72803769	     -2.22133541	    -15.87188611	     11.18925783	     -3.18882127	      8.92098734	     -8.50803239	     -6.89954730	    -24.11247393	     14.60746233	     -2.93968031	     -4.37220293	      2.33542629	      1.20749112
      0.03000000	     -2.53674008	     -5.13529058	     -1.69186376	      1.08905514	      0.94243142	     -0.27894247	      6.93110817	      6.70096310	     -2.16664556	    -15.93863120	     11.20565637	     -3.19875388	      8.92276564	     -8.48630606	     -6.98667344	    -24.10463715	     14.60905472	     -2.95361981	     -4.37376422	      2.31350705	      1.26393060
      0.04000000	     -2.54400224	     -5.13607185	     -1.72511069	      1.08909590	      0.94242418	     -0.27908376	      6.96457535	      6.69368687	     -2.13564896	    -15.98840211	     11.20464648	     -3.19985226	      8.91866244	     -8.47923166	     -7.01303856	    -24.10071301	     14.60992914	     -2.95848498	     -4.39482469	      2.31529506	      1.25177402
      0.05000000	     -2.56821988	     -5.11397049	     -1.79722110	      1.08916053	      0.94238921	     -0.27920840	      7.02443525	      6.66256013	     -2.08223601	    -16.05619679	     11.22381115	     -3.19916944	      8.92127016	     -8.45399222	     -7.09987793	    -24.09671548	     14.61262709	     -2.97453979	     -4.39272764	      2.29241620	      1.30637414
      0.06000000	     -2.57463054	     -5.11524739	     -1.82606682	      1.08924472	      0.94238700	     -0.27940789	      7.04698550	      6.65153806	     -2.06006104	    -16.09336624	     11.22163235	     -3.19807732	      8.91366403	     -8.44224759	     -7.11867932	    -24.09333194	     14.61254196	     -2.97822935	     -4.40974674	      2.30193783	      1.28636950
      0.07000000	     -2.59373546	     -5.08934910	     -1.88386479	      1.08930471	      0.94236697	     -0.27957140	      7.09589344	      6.61386891	     -2.01385952	    -16.15044780	     11.24027694	     -3.19218671	      8.90965557	     -8.40971187	     -7.19799268	    -24.07861574	     14.61146702	     -2.99674025	     -4.41865331	      2.27385761	      1.32912841
      0.08000000	     -2.60234183	     -5.08869830	     -1.90375626	      1.08939107	      0.94236723	     -0.27979237	      7.11160664	      6.59963459	     -1.99602738	    -16.17108691	     11.23979040	     -3.19013163	      8.90355420	     -8.39543378	     -7.21735534	    -24.06942883	     14.61112760	     -3.00172987	     -4.43434980	      2.28050665	      1.30772888
      0.09000000	     -2.61278838	     -5.09221832	     -1.91331312	      1.08947829	      0.94236751	     -0.28003211	      7.11675368	      6.58815716	     -1.99475258	    -16.16808636	     11.24028451	     -3.19001199	      8.90536430	     -8.38378130	     -7.22267276	    -24.06655801	     14.61154776	     -3.00248700	     -4.44868568	      2.29242905	      1.30509718
      0.10000000	     -2.62218587	     -5.05705960	     -1.94368744	      1.08958812	      0.94237324	     -0.28024960	      7.13173961	      6.53617395	     -1.97268876	    -16.18933645	     11.25268714	     -3.18333202	      8.88742818	     -8.33434295	     -7.27931795	    -24.04032477	     14.60975160	     -3.02270093	     -4.45702563	      2.25850027	      1.30417866
      0.11000000	     -2.63303154	     -5.06097557	     -1.94779902	      1.08967583	      0.94237562	     -0.28049004	      7.13478680	      6.52575107	     -1.97168026	    -16.18345544	     11.25322158	     -3.18321060	      8.88967950	     -8.32349918	     -7.28393619	    -24.03571973	     14.60993945	     -3.02322459	     -4.46993738	      2.27199050	      1.29852256
      0.12000000	     -2.64197588	     -5.04605766	     -1.93426313	      1.08980918	      0.94238714	     -0.28076001	      7.11800168	      6.49211785	     -1.98265006	    -16.15085805	     11.25228707	     -3.17778920	      8.88465003	     -8.28987774	     -7.28914038	    -24.01744807	     14.60976289	     -3.03454508	     -4.47401520	      2.26553849	      1.24823902
      0.13000000	     -2.65592970	     -5.04489173	     -1.92833456	      1.08992688	      0.94238930	     -0.28100925	      7.11134260	      6.47511450	     -1.99068898	    -16.12543636	     11.25060649	     -3.17607937	      8.88611610	     -8.27400218	     -7.29925482	    -24.00395209	     14.61404084	     -3.03764144	     -4.47558661	      2.27562633	      1.21417716
      0.14000000	     -2.66986430	     -5.04155447	     -1.90959318	      1.09003162	      0.94239219	     -0.28126437	      7.09808346	      6.45542600	     -2.00939703	    -16.08555243	     11.24515191	     -3.17322944	      8.89464387	     -8.25440846	     -7.29510261	    -23.99547594	     14.61926426	     -3.04050404	     -4.47965902	      2.28055121	      1.17411892
      0.15000000	     -2.68437479	     -5.04069375	     -1.88943390	      1.09013831	      0.94239370	     -0.28152360	      7.08544025	      6.43751667	     -2.03157896	    -16.04722739	     11.23837775	     -3.17013756	      8.90404835	     -8.23642455	     -7.28544592	    -23.98729718	     14.62441869	     -3.04211414	     -4.48134031	      2.29155173	      1.12998920
      0.16000000	     -2.69545364	     -5.04422101	     -1.88810943	      1.09020279	      0.94239516	     -0.28174837	      7.08751392	      6.42729105	     -2.03360776	    -16.03854905	     11.23786578	     -3.16991795	      8.90941678	     -8.22592803	     -7.28679632	    -23.98340896	     14.62524092	     -3.04207095	     -4.49477761	      2.30620063	      1.12594712
      0.17000000	     -2.71631059	     -5.04123544	     -1.86342344	      1.09030141	      0.94238472	     -0.28199822	      7.07435781	      6.40751734	     -2.05965087	    -15.98430563	     11.22489144	     -3.16512391	      8.92864670	     -8.20710025	     -7.27826989	    -23.97678661	     14.63606641	     -3.04469570	     -4.48689417	      2.31414442	      1.06741665
      0.18000000	     -2.72714963	     -5.04505862	     -1.86363409	      1.09033926	      0.94238193	     -0.28220845	      7.07892119	      6.39847427	     -2.06161412	    -15.97697748	     11.22419321	     -3.16481350	      8.93525443	     -8.19726801	     -7.27798458	    -23.97286864	     14.63671184	     -3.04467380	     -4.50289623	      2.32908319	      1.06518617
      0.19000000	     -2.73827203	     -5.04839214	     -1.86459812	      1.09037305	      0.94237687	     -0.28240951	      7.08343002	      6.38926478	     -2.06365154	    -15.96782173	     11.22287434	     -3.16434371	      8.94244737	     -8.18751253	     -7.27832471	    -23.96901706	     14.63815930	     -3.04500050	     -4.51729812	      2.34236366	      1.06147921
      0.20000000	     -2.76599699	     -5.04581383	     -1.84566923	      1.09042077	      0.94234652	     -0.28264272	      7.08938990	      6.37108372	     -2.08397931	    -15.92810574	     11.19794835	     -3.15572694	      8.97621397	     -8.16762648	     -7.25552284	    -23.97314063	     14.65656438	     -3.05386364	     -4.50518385	      2.35127750	      1.02020080
      0.21000000	     -2.77592369	     -5.05016763	     -1.84702997	      1.09043639	      0.94233930	     -0.28283055	      7.09652420	      6.36391644	     -2.08432584	    -15.92361624	     11.19823804	     -3.15549269	      8.98302142	     -8.15986613	     -7.25570721	    -23.96889851	     14.65683970	     -3.05411725	     -4.52181883	      2.36389659	      1.02145058
      0.22000000	     -2.78547068	     -5.05369770	     -1.84815226	      1.09045391	      0.94232807	     -0.28302283	      7.10348614	      6.35557103	     -2.08369337	    -15.91935171	     11.19792149	     -3.15513425	      8.99016784	     -8.15076633	     -7.25564091	    -23.96605477	     14.65795436	     -3.05483094	     -4.53681927	      2.37732738	      1.02377644
      0.23000000	     -2.79478508	     -5.05665169	     -1.84798337	      1.09047272	      0.94231480	     -0.28321743	      7.11040881	      6.34650276	     -2.08161703	    -15.91558515	     11.19723232	     -3.15468457	      8.99786650	     -8.14090908	     -7.25513381	    -23.96421908	     14.65998147	     -3.05605244	     -4.55115513	      2.39015463	      1.02759968
      0.24000000	     -2.80364312	     -5.05906876	     -1.84586823	      1.09049439	      0.94229979	     -0.28341588	      7.11702967	      6.33667416	     -2.07780513	    -15.91238711	     11.19650960	     -3.15423658	      9.00571987	     -8.13033469	     -7.25429878	    -23.96320682	     14.66275818	     -3.05766971	     -4.56518417	      2.40245341	      1.03273188
      0.25000000	     -2.81854780	     -5.05033312	     -1.84390903	      1.09048382	      0.94226340	     -0.28360948	      7.13734876	      6.31749108	     -2.04583762	    -15.92010880	     11.19151457	     -3.14948294	      9.03431889	     -8.10427345	     -7.22243689	    -23.98689443	     14.68747596	     -3.07553151	     -4.57567146	      2.39814657	      1.05744769
      0.26000000	     -2.82694175	     -5.05328466	     -1.83866449	      1.09051630	      0.94224750	     -0.28380924	      7.14296064	      6.30878332	     -2.04175765	    -15.91717248	     11.19282512	     -3.14937811	      9.04006329	     -8.09443363	     -7.22516438	    -23.98194718	     14.68883845	     -3.07691223	     -4.58735140	      2.41106659	      1.05967410
